<svg width="58" height="10" viewBox="0 0 58 10" fill="none" xmlns="http://www.w3.org/2000/svg">
<path d="M2.64205 9L0.255682 0.272727H1.32955L3.15341 7.38068H3.23864L5.09659 0.272727H6.28977L8.14773 7.38068H8.23295L10.0568 0.272727H11.1307L8.74432 9H7.65341L5.72727 2.04545H5.65909L3.73295 9H2.64205ZM12.3111 9V2.45455H13.3168V9H12.3111ZM12.8224 1.36364C12.6264 1.36364 12.4574 1.29687 12.3153 1.16335C12.1761 1.02983 12.1065 0.869318 12.1065 0.681818C12.1065 0.494318 12.1761 0.333807 12.3153 0.200284C12.4574 0.0667613 12.6264 0 12.8224 0C13.0185 0 13.1861 0.0667613 13.3253 0.200284C13.4673 0.333807 13.5384 0.494318 13.5384 0.681818C13.5384 0.869318 13.4673 1.02983 13.3253 1.16335C13.1861 1.29687 13.0185 1.36364 12.8224 1.36364ZM16.0962 6.61364L16.0792 5.36932H16.2837L19.1474 2.45455H20.3917L17.3406 5.53977H17.2553L16.0962 6.61364ZM15.1587 9V0.272727H16.1644V9H15.1587ZM19.3178 9L16.761 5.76136L17.4769 5.0625L20.5962 9H19.3178ZM21.6861 9V2.45455H22.6918V9H21.6861ZM22.1974 1.36364C22.0014 1.36364 21.8324 1.29687 21.6903 1.16335C21.5511 1.02983 21.4815 0.869318 21.4815 0.681818C21.4815 0.494318 21.5511 0.333807 21.6903 0.200284C21.8324 0.0667613 22.0014 0 22.1974 0C22.3935 0 22.5611 0.0667613 22.7003 0.200284C22.8423 0.333807 22.9134 0.494318 22.9134 0.681818C22.9134 0.869318 22.8423 1.02983 22.7003 1.16335C22.5611 1.29687 22.3935 1.36364 22.1974 1.36364Z" fill="black"/>
<path d="M23.9531 8.87109C23.8281 8.78516 23.7773 8.65625 23.8008 8.48438C23.8242 8.3125 23.8789 8.13672 23.9648 7.95703C24.0508 7.75391 24.1758 7.53125 24.3398 7.28906C24.5898 6.8125 24.8125 6.38672 25.0078 6.01172C25.2109 5.62891 25.3984 5.26953 25.5703 4.93359C25.7422 4.59766 25.9062 4.27344 26.0625 3.96094C26.2188 3.64844 26.375 3.32031 26.5312 2.97656C26.6953 2.63281 26.8633 2.26562 27.0352 1.875C27.207 1.48437 27.3984 1.03906 27.6094 0.539062C27.625 0.507813 27.6484 0.464844 27.6797 0.410156C27.7188 0.347656 27.7617 0.300781 27.8086 0.269531C27.8633 0.230469 27.918 0.21875 27.9727 0.234375C28.0273 0.242187 28.082 0.296875 28.1367 0.398438C28.2148 0.554688 28.2188 0.769531 28.1484 1.04297C28.0859 1.31641 27.9727 1.63281 27.8086 1.99219C27.6445 2.34375 27.4492 2.72656 27.2227 3.14062C26.9961 3.54688 26.7578 3.96094 26.5078 4.38281C26.2578 4.80469 26.0117 5.22266 25.7695 5.63672C25.5273 6.05078 25.3125 6.4375 25.125 6.79688C24.9453 7.15625 24.8047 7.48438 24.7031 7.78125C24.6094 8.07031 24.5781 8.30078 24.6094 8.47266C25.1641 8.52734 25.7227 8.52344 26.2852 8.46094C26.8477 8.39844 27.4102 8.32422 27.9727 8.23828C28.5352 8.14453 29.0977 8.0625 29.6602 7.99219C30.2305 7.92188 30.7969 7.90625 31.3594 7.94531C31.4609 7.92969 31.5469 7.96484 31.6172 8.05078C31.6875 8.13672 31.6914 8.23047 31.6289 8.33203C31.6133 8.33203 31.5781 8.33203 31.5234 8.33203C31.4766 8.32422 31.4258 8.32031 31.3711 8.32031C31.3164 8.32031 31.2617 8.32422 31.207 8.33203C31.1602 8.33203 31.125 8.33203 31.1016 8.33203C30.6641 8.37109 30.1523 8.44141 29.5664 8.54297C28.9805 8.63672 28.375 8.72656 27.75 8.8125C27.125 8.89844 26.5 8.96484 25.875 9.01172C25.2578 9.05859 24.6992 9.05469 24.1992 9C24.1914 9 24.1523 8.98438 24.082 8.95312C24.0195 8.91406 23.9766 8.88672 23.9531 8.87109ZM45.4922 8.87109C45.4766 8.86328 45.4766 8.77344 45.4922 8.60156C45.5156 8.42188 45.5469 8.19922 45.5859 7.93359C45.625 7.66797 45.6758 7.375 45.7383 7.05469C45.8008 6.73438 45.8672 6.42969 45.9375 6.14062C46.0078 5.84375 46.082 5.58594 46.1602 5.36719C46.2461 5.14062 46.3281 4.98438 46.4062 4.89844C46.4609 4.84375 46.5156 4.84375 46.5703 4.89844C46.625 4.94531 46.6797 5.00781 46.7344 5.08594C46.7891 5.15625 46.8438 5.22266 46.8984 5.28516C46.9531 5.33984 47.0117 5.34375 47.0742 5.29688C47.293 4.99219 47.5312 4.70312 47.7891 4.42969C48.0547 4.14844 48.3477 3.90625 48.668 3.70312C48.6992 3.67969 48.7852 3.64453 48.9258 3.59766C49.0664 3.54297 49.2266 3.49219 49.4062 3.44531C49.5859 3.39062 49.7695 3.34766 49.957 3.31641C50.1523 3.27734 50.3164 3.26172 50.4492 3.26953C50.5898 3.26953 50.6836 3.30469 50.7305 3.375C50.7852 3.4375 50.7617 3.54688 50.6602 3.70312C50.1914 3.71094 49.7539 3.84766 49.3477 4.11328C48.9414 4.37891 48.5664 4.70703 48.2227 5.09766C47.8789 5.48828 47.5664 5.91406 47.2852 6.375C47.0039 6.82812 46.7578 7.25 46.5469 7.64062C46.3438 8.03125 46.1719 8.35547 46.0312 8.61328C45.8984 8.87109 45.8008 9 45.7383 9C45.7305 9 45.6953 8.98438 45.6328 8.95312C45.5703 8.91406 45.5234 8.88672 45.4922 8.87109Z" fill="#4181E1"/>
<path d="M32.8242 8.87109C32.5898 8.79297 32.4102 8.67578 32.2852 8.51953C32.168 8.35547 32.0898 8.17578 32.0508 7.98047C32.0117 7.78516 32.0039 7.58203 32.0273 7.37109C32.0586 7.15234 32.1055 6.94531 32.168 6.75C32.4023 6.5 32.6641 6.21484 32.9531 5.89453C33.25 5.56641 33.5625 5.24609 33.8906 4.93359C34.2188 4.62109 34.5586 4.33203 34.9102 4.06641C35.2695 3.79297 35.6328 3.58594 36 3.44531C36.125 3.39062 36.2227 3.39453 36.293 3.45703C36.3711 3.51172 36.4258 3.60156 36.457 3.72656C36.4883 3.85156 36.5 3.99609 36.4922 4.16016C36.4922 4.32422 36.4805 4.48438 36.457 4.64062C36.4336 4.79688 36.4023 4.9375 36.3633 5.0625C36.3242 5.1875 36.2852 5.27344 36.2461 5.32031C36.1523 5.42969 35.9688 5.55859 35.6953 5.70703C35.4297 5.85547 35.1328 6.01953 34.8047 6.19922C34.4766 6.37109 34.1484 6.55078 33.8203 6.73828C33.4922 6.92578 33.2227 7.11328 33.0117 7.30078C32.8008 7.48047 32.6758 7.66016 32.6367 7.83984C32.5977 8.01953 32.707 8.18359 32.9648 8.33203C33.2305 8.36328 33.5508 8.35156 33.9258 8.29688C34.3086 8.23438 34.6953 8.15625 35.0859 8.0625C35.4844 7.96094 35.8672 7.85938 36.2344 7.75781C36.6016 7.64844 36.9023 7.5625 37.1367 7.5L37.2773 7.62891C37.1055 7.85547 36.8242 8.0625 36.4336 8.25C36.043 8.4375 35.6211 8.59375 35.168 8.71875C34.7148 8.83594 34.2734 8.91406 33.8438 8.95312C33.4141 8.98438 33.0742 8.95703 32.8242 8.87109ZM35.625 4.39453C35.6172 4.38672 35.5586 4.42188 35.4492 4.5C35.3398 4.57031 35.2031 4.66797 35.0391 4.79297C34.8828 4.91016 34.7109 5.04297 34.5234 5.19141C34.3438 5.33203 34.1758 5.46484 34.0195 5.58984C33.8711 5.71484 33.7461 5.82422 33.6445 5.91797C33.543 6.00391 33.5 6.04688 33.5156 6.04688C33.6406 6.07031 33.8008 6.05469 33.9961 6C34.1992 5.9375 34.4062 5.85156 34.6172 5.74219C34.8359 5.63281 35.043 5.51172 35.2383 5.37891C35.4336 5.23828 35.5859 5.10156 35.6953 4.96875C35.8125 4.83594 35.8711 4.71875 35.8711 4.61719C35.8789 4.51562 35.7969 4.44141 35.625 4.39453ZM55.418 8.87109C55.3945 8.61328 55.4141 8.35938 55.4766 8.10938C55.5469 7.85156 55.6367 7.60156 55.7461 7.35938C55.8633 7.10938 55.9844 6.86328 56.1094 6.62109C56.2422 6.37109 56.3555 6.12891 56.4492 5.89453C56.543 5.65234 56.6094 5.41797 56.6484 5.19141C56.6875 4.95703 56.6719 4.72656 56.6016 4.5C56.4062 4.42969 56.1797 4.44531 55.9219 4.54688C55.6719 4.64844 55.4062 4.80469 55.125 5.01562C54.8438 5.21875 54.5508 5.46094 54.2461 5.74219C53.9492 6.01562 53.6562 6.29688 53.3672 6.58594C53.0859 6.86719 52.8164 7.13672 52.5586 7.39453C52.3008 7.65234 52.0664 7.86719 51.8555 8.03906C51.6523 8.20312 51.4805 8.30859 51.3398 8.35547C51.1992 8.39453 51.1055 8.34375 51.0586 8.20312C51.0508 8.19531 51.0938 8.09766 51.1875 7.91016C51.2891 7.71484 51.4102 7.47266 51.5508 7.18359C51.6992 6.89453 51.8594 6.58203 52.0312 6.24609C52.2109 5.91016 52.3789 5.59766 52.5352 5.30859C52.6914 5.01172 52.8281 4.76172 52.9453 4.55859C53.0625 4.35547 53.1367 4.24609 53.168 4.23047C53.332 4.33984 53.4141 4.46094 53.4141 4.59375C53.4219 4.71875 53.4023 4.85156 53.3555 4.99219C53.3086 5.125 53.2539 5.26172 53.1914 5.40234C53.1367 5.54297 53.1289 5.68359 53.168 5.82422C53.293 5.73828 53.4648 5.62109 53.6836 5.47266C53.9102 5.31641 54.1523 5.15625 54.4102 4.99219C54.6758 4.82812 54.9492 4.66797 55.2305 4.51172C55.5195 4.35547 55.7891 4.23438 56.0391 4.14844C56.2891 4.05469 56.5117 4.00391 56.707 3.99609C56.9102 3.98828 57.0586 4.04688 57.1523 4.17188C57.2461 4.29688 57.2734 4.50391 57.2344 4.79297C57.2031 5.07422 57.082 5.46094 56.8711 5.95312C56.8477 6.00781 56.7891 6.14062 56.6953 6.35156C56.6094 6.55469 56.5117 6.77734 56.4023 7.01953C56.3008 7.25391 56.2031 7.47656 56.1094 7.6875C56.0234 7.89062 55.9688 8.01953 55.9453 8.07422C55.9375 8.10547 55.9258 8.16406 55.9102 8.25C55.9023 8.32812 55.8906 8.41797 55.875 8.51953C55.8594 8.61328 55.8359 8.70703 55.8047 8.80078C55.7734 8.88672 55.7344 8.95312 55.6875 9C55.6406 9.04688 55.5859 9.04297 55.5234 8.98828C55.4609 8.92578 55.4258 8.88672 55.418 8.87109Z" fill="#E14181"/>
<path d="M37.5938 8.73047C37.4062 8.57422 37.3008 8.34375 37.2773 8.03906C37.2617 7.73438 37.3047 7.39062 37.4062 7.00781C37.5156 6.625 37.6719 6.22656 37.875 5.8125C38.0859 5.39062 38.3281 4.99219 38.6016 4.61719C38.875 4.23438 39.1719 3.89453 39.4922 3.59766C39.8125 3.29297 40.1328 3.07031 40.4531 2.92969C40.7734 2.78125 41.0859 2.73047 41.3906 2.77734C41.6953 2.81641 41.9727 2.99219 42.2227 3.30469C42.3789 3.5 42.4727 3.69922 42.5039 3.90234C42.5352 4.09766 42.5312 4.30078 42.4922 4.51172C42.4531 4.71484 42.3906 4.92578 42.3047 5.14453C42.2188 5.35547 42.1328 5.57031 42.0469 5.78906C41.9688 6.00781 41.9023 6.23047 41.8477 6.45703C41.8008 6.68359 41.793 6.91406 41.8242 7.14844C41.8633 7.44531 41.9961 7.62109 42.2227 7.67578C42.4492 7.73047 42.7188 7.71484 43.0312 7.62891C43.3516 7.54297 43.6875 7.40625 44.0391 7.21875C44.3906 7.03125 44.7148 6.84375 45.0117 6.65625C45.3164 6.46875 45.5664 6.30469 45.7617 6.16406C45.9648 6.02344 46.0664 5.95312 46.0664 5.95312C46.2852 5.90625 46.4062 5.92188 46.4297 6C46.4609 6.07031 46.418 6.17969 46.3008 6.32812C46.1914 6.46875 46.0234 6.63281 45.7969 6.82031C45.5703 7 45.3125 7.17578 45.0234 7.34766C44.7344 7.51953 44.4258 7.67578 44.0977 7.81641C43.7695 7.95703 43.4492 8.05469 43.1367 8.10938C42.8242 8.15625 42.5273 8.15234 42.2461 8.09766C41.9727 8.03516 41.7461 7.89453 41.5664 7.67578C41.4805 7.58203 41.4141 7.48828 41.3672 7.39453C41.3281 7.30078 41.2617 7.21875 41.168 7.14844C41.0508 7.25781 40.9102 7.40234 40.7461 7.58203C40.582 7.75391 40.4023 7.92969 40.207 8.10938C40.0195 8.28125 39.8164 8.44531 39.5977 8.60156C39.3867 8.75781 39.168 8.875 38.9414 8.95312C38.7148 9.03125 38.4844 9.05859 38.25 9.03516C38.0234 9.01172 37.8047 8.91016 37.5938 8.73047ZM37.7227 8.33203C37.793 8.58203 37.9492 8.69922 38.1914 8.68359C38.4336 8.66016 38.7148 8.53906 39.0352 8.32031C39.3555 8.10156 39.6875 7.80469 40.0312 7.42969C40.375 7.04688 40.6836 6.625 40.957 6.16406C41.2305 5.69531 41.4375 5.20312 41.5781 4.6875C41.7266 4.17188 41.7656 3.66406 41.6953 3.16406C41.5078 3.01562 41.2734 3.01172 40.9922 3.15234C40.7109 3.28516 40.4102 3.50781 40.0898 3.82031C39.7773 4.125 39.4648 4.49219 39.1523 4.92188C38.8477 5.34375 38.5781 5.77344 38.3438 6.21094C38.1094 6.64062 37.9297 7.04688 37.8047 7.42969C37.6875 7.8125 37.6602 8.11328 37.7227 8.33203Z" fill="#81E141"/>
</svg>
